<svg width="168" height="145" viewBox="0 0 168 145" fill="none" xmlns="http://www.w3.org/2000/svg">
<g id="Group 90">
<g id="Group" opacity="0.5">
<g id="Group_2">
<g id="Group_3">
<g id="Group_4">
<path id="Vector" d="M123.84 7.59359C123.479 7.7094 123.075 7.69319 122.705 7.51717C121.931 7.14891 121.601 6.22248 121.968 5.44659L123.133 2.98692C123.5 2.21103 124.427 1.87983 125.198 2.24809C125.972 2.61634 126.303 3.54277 125.935 4.31866L124.771 6.77602C124.579 7.18133 124.235 7.4639 123.84 7.59128V7.59359Z" fill="#4583FF"/>
<path id="Vector_2" d="M120.051 15.6031C119.69 15.7189 119.286 15.7027 118.916 15.5267C118.142 15.1584 117.812 14.232 118.179 13.4561L119.341 10.9988C119.709 10.2229 120.633 9.89167 121.407 10.2599C122.181 10.6282 122.511 11.5546 122.144 12.3305L120.982 14.7879C120.79 15.1932 120.446 15.4781 120.051 15.6031Z" fill="#4583FF"/>
</g>
<g id="Group_5">
<path id="Vector_3" d="M119.76 9.05281C119.4 9.16862 118.995 9.15241 118.626 8.97638L116.174 7.8114C115.4 7.44314 115.07 6.51671 115.437 5.74082C115.805 4.96494 116.729 4.63374 117.503 5.00199L119.954 6.16698C120.728 6.53524 121.058 7.46167 120.691 8.23755C120.499 8.64287 120.155 8.92775 119.76 9.05281Z" fill="#4583FF"/>
<path id="Vector_4" d="M127.749 12.8497C127.386 12.9655 126.984 12.9493 126.615 12.7733L124.163 11.6083C123.389 11.24 123.059 10.3136 123.426 9.5377C123.794 8.76181 124.718 8.43061 125.492 8.79887L127.943 9.96386C128.717 10.3321 129.048 11.2585 128.68 12.0344C128.489 12.4397 128.144 12.7246 127.749 12.8497Z" fill="#4583FF"/>
</g>
</g>
<g id="Group_6">
<g id="Group_7">
<path id="Vector_5" d="M158.155 123.447C157.792 123.447 157.429 123.322 157.136 123.062L155.091 121.272C154.447 120.707 154.38 119.725 154.943 119.079C155.507 118.433 156.487 118.365 157.131 118.931L159.176 120.721C159.821 121.286 159.888 122.268 159.324 122.914C159.017 123.266 158.587 123.447 158.155 123.447Z" fill="#4583FF"/>
<path id="Vector_6" d="M164.818 129.275C164.455 129.275 164.092 129.15 163.799 128.891L161.754 127.1C161.11 126.535 161.043 125.553 161.606 124.907C162.17 124.261 163.15 124.194 163.794 124.759L165.839 126.549C166.484 127.114 166.551 128.096 165.987 128.742C165.68 129.094 165.25 129.275 164.818 129.275Z" fill="#4583FF"/>
</g>
<g id="Group_8">
<path id="Vector_7" d="M162.48 123.156C162.117 123.156 161.755 123.03 161.461 122.771C160.817 122.206 160.75 121.224 161.313 120.578L163.099 118.528C163.663 117.882 164.643 117.815 165.287 118.38C165.932 118.945 165.999 119.927 165.435 120.573L163.649 122.623C163.342 122.975 162.912 123.156 162.48 123.156Z" fill="#4583FF"/>
<path id="Vector_8" d="M156.665 129.835C156.302 129.835 155.939 129.71 155.646 129.451C155.001 128.886 154.934 127.904 155.498 127.257L157.284 125.208C157.848 124.562 158.827 124.494 159.472 125.059C160.117 125.625 160.184 126.607 159.62 127.253L157.834 129.303C157.527 129.655 157.097 129.835 156.665 129.835Z" fill="#4583FF"/>
</g>
</g>
</g>
<g id="Group_9">
<g id="Group_10">
<g id="Group_11">
<path id="Vector_9" d="M24.6172 25.0708C24.6172 25.4506 24.7558 25.8328 25.0354 26.1315C25.6199 26.7592 26.6018 26.7939 27.228 26.2057L29.2126 24.3482C29.8387 23.7622 29.8734 22.7779 29.2865 22.1502C28.6997 21.5225 27.7201 21.4878 27.094 22.0761L25.1093 23.9336C24.7812 24.2393 24.6172 24.6539 24.6172 25.0708Z" fill="#4583FF"/>
<path id="Vector_10" d="M18.1523 31.1171C18.1523 31.497 18.291 31.8768 18.5705 32.1779C19.1551 32.8056 20.137 32.8403 20.7631 32.2543L22.7478 30.3991C23.3739 29.8132 23.4085 28.8288 22.824 28.2012C22.2395 27.5735 21.2575 27.5388 20.6314 28.1248L18.6468 29.9799C18.3187 30.2857 18.1547 30.7002 18.1547 31.1171H18.1523Z" fill="#4583FF"/>
</g>
<g id="Group_12">
<path id="Vector_11" d="M24.4668 29.4105C24.4668 29.7903 24.6054 30.1702 24.885 30.4713L26.7356 32.4608C27.3202 33.0884 28.3021 33.1232 28.9282 32.5372C29.5543 31.9512 29.589 30.9669 29.0045 30.3393L27.1538 28.3497C26.5693 27.7221 25.5873 27.6873 24.9612 28.2733C24.6331 28.579 24.4691 28.9936 24.4691 29.4105H24.4668Z" fill="#4583FF"/>
<path id="Vector_12" d="M18.4346 22.93C18.4346 23.3099 18.5732 23.6897 18.8528 23.9908L20.7034 25.9803C21.2879 26.608 22.2699 26.6427 22.896 26.0567C23.5221 25.4708 23.5568 24.4864 22.9722 23.8588L21.1216 21.8693C20.537 21.2416 19.5551 21.2069 18.929 21.7928C18.6009 22.0986 18.4369 22.5131 18.4369 22.93H18.4346Z" fill="#4583FF"/>
</g>
</g>
<g id="Group_13">
<g id="Group_14">
<path id="Vector_13" d="M23.3302 137.619C23.6929 137.619 24.0556 137.494 24.3491 137.234L26.3938 135.444C27.0384 134.879 27.1054 133.897 26.5416 133.251C25.9779 132.605 24.9983 132.537 24.3537 133.102L22.309 134.893C21.6644 135.458 21.5974 136.44 22.1611 137.086C22.4684 137.438 22.8981 137.619 23.3302 137.619Z" fill="#4583FF"/>
<path id="Vector_14" d="M16.6671 143.447C17.0298 143.447 17.3926 143.322 17.686 143.062L19.7307 141.272C20.3753 140.707 20.4423 139.725 19.8786 139.079C19.3148 138.433 18.3352 138.365 17.6906 138.931L15.6459 140.721C15.0013 141.286 14.9343 142.268 15.498 142.914C15.8053 143.266 16.235 143.447 16.6671 143.447Z" fill="#4583FF"/>
</g>
<g id="Group_15">
<path id="Vector_15" d="M19.0077 137.324C19.3705 137.324 19.7332 137.198 20.0266 136.939C20.6712 136.374 20.7382 135.392 20.1745 134.746L18.3885 132.696C17.8248 132.05 16.8452 131.983 16.2006 132.548C15.556 133.113 15.489 134.095 16.0527 134.741L17.8386 136.791C18.1459 137.143 18.5757 137.324 19.0077 137.324Z" fill="#4583FF"/>
<path id="Vector_16" d="M24.8202 144.003C25.183 144.003 25.5457 143.878 25.8391 143.619C26.4837 143.054 26.5507 142.072 25.987 141.425L24.201 139.376C23.6373 138.729 22.6577 138.662 22.0131 139.227C21.3685 139.793 21.3015 140.775 21.8652 141.421L23.6512 143.471C23.9584 143.823 24.3882 144.003 24.8202 144.003Z" fill="#4583FF"/>
</g>
</g>
</g>
</g>
<g id="Group_16">
<path id="Vector_17" d="M131.863 77.1291C133.355 75.3828 134.661 73.4975 135.774 71.5034C135.793 71.4732 135.809 71.4408 135.827 71.4107C135.936 71.2162 136.042 71.0216 136.146 70.8247C136.185 70.7506 136.222 70.6765 136.262 70.6024C136.403 70.3314 136.541 70.0581 136.675 69.7825C136.747 69.6343 136.821 69.4837 136.89 69.3332C136.95 69.2058 137.008 69.0784 137.066 68.951C137.147 68.7727 137.227 68.592 137.306 68.4114C137.35 68.3095 137.394 68.2099 137.438 68.108C137.558 67.8231 137.673 67.5382 137.787 67.251C137.805 67.2024 137.824 67.1538 137.842 67.1051C137.944 66.8434 138.041 66.5794 138.135 66.3153C138.159 66.2505 138.182 66.1856 138.205 66.1208C138.427 65.4931 138.63 64.8562 138.815 64.2147C138.826 64.1776 138.836 64.1405 138.847 64.1035C138.935 63.8001 139.016 63.4944 139.094 63.1863C139.101 63.1608 139.108 63.1354 139.113 63.1099C139.279 62.4475 139.427 61.7805 139.556 61.1088C139.566 61.0602 139.575 61.0115 139.584 60.9652C139.707 60.3028 139.813 59.6381 139.898 58.9664C139.905 58.9062 139.912 58.8437 139.921 58.7835C139.956 58.4986 139.988 58.2137 140.014 57.9288C140.018 57.8732 140.025 57.8176 140.03 57.7598C140.06 57.4309 140.085 57.102 140.106 56.7708C140.111 56.7129 140.113 56.655 140.115 56.5948C140.132 56.3215 140.143 56.0482 140.155 55.7749C140.157 55.6869 140.162 55.5989 140.164 55.5108C140.173 55.182 140.18 54.8554 140.18 54.5265C140.18 35.3424 124.61 19.7344 105.473 19.7344C105.078 19.7344 104.683 19.7436 104.288 19.7552C104.223 19.7552 104.158 19.7599 104.094 19.7622C96.0974 20.0702 88.6256 23.0579 82.6531 28.3085C82.5399 28.4081 82.4267 28.5077 82.3135 28.6096C82.2095 28.7045 82.1056 28.7995 82.0016 28.8945C81.8699 29.0149 81.7382 29.133 81.6088 29.2558C75.3268 23.8663 67.3928 20.9202 59.0684 20.9202C39.9312 20.9202 24.3613 36.5283 24.3613 55.7123C24.3613 56.0736 24.3683 56.4326 24.3798 56.7916C24.3798 56.8518 24.3844 56.9121 24.3867 56.9723C24.6848 65.507 28.0095 73.4512 33.8641 79.6305C28.4877 85.9302 25.5466 93.8836 25.5466 102.231C25.5466 121.415 41.1165 137.023 60.2536 137.023C69.2435 137.023 77.6488 133.653 84.1156 127.497C90.0696 132.604 97.5068 135.517 105.355 135.809C105.406 135.809 105.457 135.812 105.508 135.814C105.891 135.825 106.275 135.835 106.658 135.835C125.796 135.835 141.365 120.227 141.365 101.043C141.365 92.0331 138.006 83.6095 131.867 77.1268L131.863 77.1291Z" fill="white"/>
<g id="Group_17">
<g id="Group_18">
<path id="Vector_18" d="M60.2488 137.028C41.1116 137.028 25.5417 121.419 25.5417 102.235C25.5417 93.8906 28.4829 85.9348 33.8592 79.6351C27.7181 73.1524 24.3564 64.7265 24.3564 55.7146C24.3564 36.5306 39.9263 20.9225 59.0635 20.9225C67.3903 20.9225 75.3242 23.8709 81.6086 29.2604C88.0754 23.1043 96.4784 19.7344 105.471 19.7344C124.608 19.7344 140.178 35.3424 140.178 54.5265C140.178 62.8736 137.236 70.8271 131.86 77.1245C138.001 83.6072 141.363 92.0331 141.363 101.045C141.363 120.229 125.793 135.837 106.656 135.837C98.3314 135.837 90.3951 132.889 84.1131 127.499C77.6462 133.655 69.2409 137.025 60.2511 137.025L60.2488 137.028ZM59.0635 24.6977C42.0011 24.6977 28.1224 38.6127 28.1224 55.7146C28.1224 64.298 31.5418 72.2839 37.7522 78.1991C38.115 78.5442 38.3252 79.019 38.3368 79.5193C38.3506 80.0196 38.1635 80.5059 37.8192 80.8673C32.3297 86.6551 29.3077 94.2449 29.3077 102.233C29.3077 119.337 43.1887 133.25 60.2488 133.25C68.8112 133.25 76.7775 129.822 82.6783 123.597C83.0225 123.233 83.4962 123.022 83.9952 123.011C84.5104 122.997 84.9795 123.184 85.3399 123.529C91.1136 129.032 98.6825 132.062 106.653 132.062C123.716 132.062 137.595 118.147 137.595 101.045C137.595 92.4615 134.175 84.4757 127.965 78.5604C127.602 78.2153 127.392 77.7406 127.38 77.2403C127.369 76.74 127.554 76.2536 127.898 75.8923C133.387 70.1044 136.409 62.517 136.409 54.5265C136.409 37.4223 122.528 23.5096 105.468 23.5096C96.9058 23.5096 88.9395 26.9374 83.0387 33.1607C82.6945 33.5243 82.2208 33.7351 81.7218 33.7466C81.2273 33.7629 80.7398 33.5729 80.3771 33.2278C74.6034 27.7248 67.0321 24.6954 59.0635 24.6954V24.6977Z" fill="#4583FF"/>
<g id="Group_19">
<path id="Vector_19" d="M42.7335 86.1536C42.4147 86.1536 42.0935 86.0726 41.7978 85.9035C31.0405 79.708 24.3564 68.1392 24.3564 55.7157C24.3564 54.6735 25.1997 53.8281 26.2394 53.8281C27.2791 53.8281 28.1224 54.6735 28.1224 55.7157C28.1224 66.7935 34.081 77.1047 43.6738 82.6309C44.5749 83.1497 44.8868 84.3031 44.3693 85.2087C44.0204 85.8155 43.3873 86.1559 42.7358 86.1559L42.7335 86.1536Z" fill="#4583FF"/>
<path id="Vector_20" d="M106.654 135.84C93.3782 135.84 81.0891 128.083 75.3454 116.079C74.8949 115.139 75.2899 114.011 76.228 113.561C77.166 113.11 78.2912 113.508 78.7394 114.446C83.8616 125.149 94.8176 132.064 106.654 132.064C107.694 132.064 108.537 132.91 108.537 133.952C108.537 134.994 107.694 135.84 106.654 135.84Z" fill="#4583FF"/>
<path id="Vector_21" d="M123.431 83.9609C122.817 83.9609 122.216 83.6599 121.853 83.1086C121.282 82.2378 121.527 81.0659 122.396 80.4961C131.171 74.736 136.409 65.0293 136.409 54.5282C136.409 53.486 137.252 52.6406 138.292 52.6406C139.331 52.6406 140.175 53.486 140.175 54.5282C140.175 66.3055 134.299 77.1934 124.459 83.6552C124.14 83.8637 123.785 83.9633 123.429 83.9633L123.431 83.9609Z" fill="#4583FF"/>
<path id="Vector_22" d="M138.295 56.4141C137.255 56.4141 136.412 55.5687 136.412 54.5265C136.412 37.4223 122.531 23.5096 105.471 23.5096C104.431 23.5096 103.588 22.6642 103.588 21.622C103.588 20.5797 104.431 19.7344 105.471 19.7344C124.608 19.7344 140.178 35.3424 140.178 54.5265C140.178 55.5687 139.335 56.4141 138.295 56.4141Z" fill="#4583FF"/>
<path id="Vector_23" d="M75.3589 43.2911C75.107 43.2911 74.8529 43.2402 74.608 43.1337C73.6538 42.7168 73.2171 41.605 73.633 40.6508C79.1526 27.9448 91.6473 19.7343 105.471 19.7343C106.51 19.7343 107.354 20.5797 107.354 21.6219C107.354 22.6642 106.51 23.5095 105.471 23.5095C93.1491 23.5095 82.0082 30.8283 77.0871 42.1563C76.7775 42.8673 76.0866 43.2911 75.3589 43.2911Z" fill="#4583FF"/>
</g>
</g>
<g id="Group_20">
<path id="Vector_24" d="M99.274 78.4071C101.543 78.1361 103.398 80.1766 102.936 82.4185C100.931 92.1738 92.7032 100.966 82.8585 100.966C73.0138 100.966 64.7865 92.1762 62.781 82.4185C62.3189 80.1766 64.1765 78.1361 66.443 78.4071L76.4356 79.6022C80.7029 80.1117 85.0142 80.1117 89.2815 79.6022L99.274 78.4071Z" fill="#4583FF"/>
<g id="Group_21">
<path id="Vector_25" d="M92.3037 65.4609C96.2822 65.4609 99.5168 68.7058 99.5168 72.6917C99.5168 73.6645 98.7289 74.4543 97.7586 74.4543C96.7882 74.4543 96.0003 73.6645 96.0003 72.6917C96.0003 70.6466 94.3415 68.9837 92.3014 68.9837C90.2613 68.9837 88.6024 70.6466 88.6024 72.6917C88.6024 73.6645 87.8145 74.4543 86.8442 74.4543C85.8738 74.4543 85.0859 73.6645 85.0859 72.6917C85.0859 68.7034 88.3228 65.4609 92.2991 65.4609H92.3037Z" fill="#4583FF"/>
<path id="Vector_26" d="M73.5341 65.4609C77.5127 65.4609 80.7473 68.7058 80.7473 72.6917C80.7473 73.6645 79.9594 74.4543 78.989 74.4543C78.0187 74.4543 77.2308 73.6645 77.2308 72.6917C77.2308 70.6466 75.5719 68.9837 73.5318 68.9837C71.4917 68.9837 69.8329 70.6466 69.8329 72.6917C69.8329 73.6645 69.045 74.4543 68.0746 74.4543C67.1043 74.4543 66.3164 73.6645 66.3164 72.6917C66.3164 68.7034 69.5533 65.4609 73.5295 65.4609H73.5341Z" fill="#4583FF"/>
</g>
</g>
</g>
</g>
<path id="Vector_27" d="M86.2216 11.5019C88.3338 9.38446 88.3338 5.95148 86.2216 3.83408C84.1094 1.71668 80.6848 1.71668 78.5726 3.83408C76.4603 5.95148 76.4603 9.38446 78.5726 11.5019C80.6848 13.6193 84.1094 13.6193 86.2216 11.5019Z" fill="#DFECFC"/>
<path id="Vector_28" d="M163.826 69.2911C165.938 67.1737 165.938 63.7407 163.826 61.6233C161.714 59.5059 158.289 59.5059 156.177 61.6233C154.065 63.7407 154.065 67.1737 156.177 69.2911C158.289 71.4085 161.714 71.4085 163.826 69.2911Z" fill="#DFECFC"/>
<path id="Vector_29" d="M12.1201 86.5812C12.8063 83.6668 11.0058 80.7466 8.09852 80.0588C5.19126 79.3709 2.27821 81.1759 1.59204 84.0902C0.905864 87.0046 2.70641 89.9248 5.61366 90.6127C8.52092 91.3005 11.434 89.4956 12.1201 86.5812Z" fill="#DFECFC"/>
<path id="Vector_30" d="M145.437 138.558C146.123 135.643 144.322 132.723 141.415 132.035C138.508 131.347 135.595 133.152 134.908 136.067C134.222 138.981 136.023 141.901 138.93 142.589C141.837 143.277 144.75 141.472 145.437 138.558Z" fill="#DFECFC"/>
</g>
</svg>
